<?xml version="1.0" standalone="no"?>
<!DOCTYPE svg PUBLIC "-//W3C//DTD SVG 20010904//EN"
 "http://www.w3.org/TR/2001/REC-SVG-20010904/DTD/svg10.dtd">
<svg version="1.0" xmlns="http://www.w3.org/2000/svg"
 width="192.000000pt" height="192.000000pt" viewBox="0 0 192.000000 192.000000"
 preserveAspectRatio="xMidYMid meet">
<metadata>
Created by potrace 1.10, written by Peter Selinger 2001-2011
</metadata>
<g transform="translate(0.000000,192.000000) scale(0.100000,-0.100000)"
fill="#000000" stroke="none">
<path d="M911 1910 l-124 -5 -26 -88 -26 -88 -58 -29 -59 -30 -58 40 c-33 22
-68 40 -78 40 -21 0 -202 -191 -202 -213 0 -7 20 -44 44 -83 l44 -71 -21 -61
-21 -60 -64 -17 c-104 -29 -103 -25 -95 -198 7 -171 6 -168 109 -188 72 -15
77 -18 98 -73 17 -44 17 -45 -9 -87 -23 -36 -24 -41 -9 -36 11 3 53 17 95 29
71 22 76 25 64 42 -9 11 -21 16 -32 12 -12 -4 -23 1 -32 16 -11 19 -11 23 3
33 14 11 14 16 -2 53 -12 30 -23 42 -38 42 -30 0 -40 41 -15 58 16 11 17 19
10 50 -4 20 -14 41 -22 47 -22 17 -28 44 -11 53 21 12 30 87 14 116 -15 29 -9
62 11 59 21 -4 53 85 38 103 -18 21 -1 55 24 49 17 -4 27 3 45 32 13 20 20 43
17 51 -8 22 24 55 41 41 18 -15 73 28 73 57 1 25 28 39 46 24 15 -12 75 17 75
37 0 7 9 17 21 23 16 9 23 8 32 -3 17 -21 74 -11 82 14 7 22 31 25 42 5 11
-20 85 -25 99 -7 15 19 54 5 54 -20 0 -20 21 -25 84 -21 32 3 57 -13 50 -32
-7 -17 53 -58 75 -51 22 7 46 -19 37 -41 -8 -22 41 -80 65 -76 24 4 43 -32 25
-47 -12 -10 -10 -19 11 -56 14 -25 31 -45 38 -45 20 0 28 -33 11 -45 -22 -16
-10 -96 15 -102 27 -7 25 -53 -1 -60 -14 -4 -20 -14 -20 -33 0 -16 -3 -35 -6
-43 -3 -9 2 -16 14 -19 15 -4 19 -12 15 -32 -4 -20 -10 -25 -23 -21 -14 4 -20
-4 -29 -41 -9 -36 -9 -49 0 -54 20 -13 0 -50 -26 -50 -17 0 -29 -9 -40 -30
-15 -29 -15 -30 12 -35 67 -14 151 -35 169 -42 14 -5 11 3 -14 34 -37 47 -38
54 -14 134 l17 60 66 19 c36 11 73 20 82 20 31 0 39 38 35 171 -4 155 -6 158
-123 187 l-80 20 -24 59 -23 60 42 67 c30 47 40 73 36 89 -8 32 -169 177 -196
177 -13 0 -50 -19 -84 -43 l-61 -44 -62 24 c-44 17 -64 31 -68 46 -3 12 -10
40 -16 62 -14 50 -23 69 -35 70 -5 0 -65 -2 -133 -5z m131 -85 c10 -32 16 -65
14 -72 -8 -19 -70 -26 -110 -12 -32 12 -40 11 -66 -5 -21 -12 -40 -15 -61 -11
-31 7 -31 8 -25 53 11 78 23 89 118 100 46 5 90 9 98 8 8 -1 22 -25 32 -61z
m414 -137 c35 -33 64 -69 64 -79 0 -10 -14 -42 -32 -71 -18 -29 -33 -54 -33
-55 -1 -2 -16 3 -34 10 -22 8 -34 20 -38 38 -7 36 -48 79 -82 85 -16 3 -35 18
-44 34 l-17 27 53 36 c28 20 63 36 75 36 16 1 45 -20 88 -61z m-905 -20 c49
-32 59 -54 29 -68 -68 -31 -75 -38 -91 -79 -8 -24 -24 -48 -35 -54 -10 -5 -29
-18 -40 -29 -21 -19 -21 -19 -53 31 -18 28 -31 57 -29 65 5 24 138 166 155
166 8 0 37 -14 64 -32z m1088 -391 c51 -17 62 -45 59 -161 l-3 -99 -70 -23
c-86 -29 -85 -29 -85 -5 0 11 -4 23 -10 26 -14 9 -12 35 5 69 19 37 19 61 -1
96 -13 20 -15 39 -10 75 l8 47 35 -7 c20 -3 52 -12 72 -18z m-1284 -77 c4 -12
-1 -46 -11 -77 -18 -56 -18 -56 5 -95 20 -35 21 -44 11 -69 -7 -16 -9 -40 -6
-55 6 -21 4 -25 -11 -20 -10 3 -39 10 -65 17 -26 6 -51 16 -56 23 -15 19 -22
232 -9 250 12 16 85 44 119 45 9 1 20 -8 23 -19z"/>
<path d="M825 1631 c-95 -28 -161 -67 -234 -139 -102 -100 -152 -226 -154
-381 -2 -106 14 -172 63 -276 43 -89 68 -119 90 -105 11 7 9 15 -13 43 -28 36
-66 115 -88 182 -8 24 -13 86 -13 155 0 103 3 122 29 185 36 89 71 141 137
200 103 93 233 132 371 113 177 -24 311 -141 373 -324 23 -71 26 -89 21 -184
-5 -122 -22 -181 -76 -270 -34 -56 -37 -66 -22 -72 24 -10 59 -10 43 1 -10 6
-6 19 19 59 37 59 79 212 79 285 0 212 -115 411 -284 491 -122 58 -229 70
-341 37z"/>
<path d="M904 1585 c-10 -8 -14 -15 -7 -15 7 0 10 -7 7 -15 -8 -20 22 -31 41
-15 20 16 19 46 -1 54 -20 8 -17 8 -40 -9z"/>
<path d="M980 1571 c0 -5 24 -12 53 -15 28 -4 78 -19 110 -35 65 -31 77 -26
18 7 -70 39 -181 66 -181 43z"/>
<path d="M761 1540 c-78 -37 -76 -50 3 -15 31 14 64 25 74 25 9 0 24 5 32 10
37 24 -50 8 -109 -20z"/>
<path d="M770 1425 c-11 -14 -7 -22 28 -58 23 -24 42 -48 42 -55 0 -21 14 -13
35 21 11 17 21 35 23 39 2 3 -12 20 -30 37 -36 34 -78 40 -98 16z"/>
<path d="M963 1400 c-92 -68 -144 -205 -123 -323 7 -33 20 -77 30 -98 19 -36
73 -89 91 -89 12 0 12 43 0 56 -18 18 -51 133 -51 176 0 84 36 162 119 257 16
19 28 38 25 43 -11 17 -52 7 -91 -22z"/>
<path d="M1080 1407 c-29 -23 -81 -112 -97 -167 -30 -97 -21 -272 16 -330 9
-12 14 -12 43 2 37 17 94 91 83 107 -3 6 1 11 9 11 19 0 48 94 54 176 5 71
-17 158 -48 192 -23 25 -38 27 -60 9z m60 -107 c23 -83 4 -183 -54 -280 -40
-69 -61 -75 -75 -23 -30 106 14 313 77 361 20 15 37 -2 52 -58z"/>
<path d="M1220 1390 c0 -12 16 -37 35 -57 l35 -36 0 26 c0 16 -12 39 -30 57
-35 35 -40 37 -40 10z"/>
<path d="M693 1374 c-22 -34 -29 -123 -14 -189 7 -30 29 -80 50 -112 37 -56
131 -157 139 -148 2 2 -8 29 -23 59 -32 65 -43 156 -26 220 11 43 9 49 -21
103 -55 101 -74 113 -105 67z m66 -80 c18 -30 21 -49 19 -110 -2 -41 -7 -74
-13 -75 -18 -1 -47 70 -52 130 -9 96 9 117 46 55z"/>
<path d="M597 1358 c-15 -17 -27 -43 -27 -57 l0 -24 24 22 c21 20 42 78 33 88
-2 2 -16 -11 -30 -29z"/>
<path d="M1316 1314 c-9 -22 -7 -84 2 -84 16 0 29 37 24 68 -5 34 -16 42 -26
16z"/>
<path d="M537 1291 c-7 -29 13 -90 28 -85 8 4 10 17 5 45 -9 50 -25 69 -33 40z"/>
<path d="M1240 1291 c0 -11 11 -33 25 -48 l24 -28 1 31 c0 18 -8 38 -18 47
-24 22 -32 21 -32 -2z"/>
<path d="M601 1274 c-22 -28 -28 -58 -10 -52 5 2 19 18 30 35 25 39 8 53 -20
17z"/>
<path d="M500 1226 c0 -29 49 -92 50 -64 0 22 -31 88 -42 88 -4 0 -8 -11 -8
-24z"/>
<path d="M1250 1217 c0 -25 31 -82 39 -70 3 6 15 13 27 17 12 3 26 18 32 32
15 32 15 34 -4 34 -9 0 -21 -13 -27 -30 l-11 -29 -28 32 c-21 25 -27 28 -28
14z"/>
<path d="M586 1195 c-21 -21 -30 -55 -18 -67 7 -7 17 3 31 30 12 23 21 44 21
47 0 10 -19 5 -34 -10z"/>
<path d="M1230 1143 c0 -27 27 -97 32 -87 16 28 15 61 -2 82 -22 27 -30 28
-30 5z"/>
<path d="M1316 1139 c-31 -24 -37 -62 -7 -51 10 4 31 22 46 40 24 29 25 32 7
32 -11 0 -31 -9 -46 -21z"/>
<path d="M500 1141 c0 -23 14 -43 41 -57 25 -13 29 -13 29 0 0 16 -22 41 -51
56 -11 7 -19 7 -19 1z"/>
<path d="M597 1122 c-11 -19 -15 -41 -12 -53 7 -21 7 -21 22 0 8 12 13 36 11
54 l-3 32 -18 -33z"/>
<path d="M1207 1086 c-9 -23 -8 -66 2 -91 8 -19 9 -18 21 7 10 22 10 33 -2 64
-12 29 -16 33 -21 20z"/>
<path d="M627 1074 c-10 -11 -9 -102 2 -109 14 -8 25 59 14 90 -4 14 -12 23
-16 19z"/>
<path d="M520 1059 c0 -14 55 -69 69 -69 14 0 14 6 1 31 -13 23 -70 55 -70 38z"/>
<path d="M1281 1044 c-17 -14 -31 -30 -31 -35 0 -21 38 -7 70 26 31 32 32 35
13 35 -12 0 -35 -12 -52 -26z"/>
<path d="M666 965 c-8 -52 11 -106 25 -70 15 40 8 115 -11 115 -4 0 -11 -20
-14 -45z"/>
<path d="M1165 968 c0 -23 5 -43 12 -45 16 -6 29 46 16 65 -18 29 -28 22 -28
-20z"/>
<path d="M550 973 c0 -14 31 -40 63 -52 17 -7 27 -7 27 -1 0 13 -37 50 -49 50
-5 0 -16 3 -25 6 -9 3 -16 2 -16 -3z"/>
<path d="M1230 965 c-19 -23 4 -45 28 -27 9 7 25 15 35 18 29 10 19 24 -17 24
-18 0 -39 -7 -46 -15z"/>
<path d="M1122 930 c-15 -24 -16 -57 -2 -65 15 -9 32 37 23 63 -8 21 -9 21
-21 2z"/>
<path d="M731 939 c-1 -4 -8 -23 -16 -42 -18 -43 -3 -59 21 -22 13 20 14 31 6
48 -6 12 -11 19 -11 16z"/>
<path d="M1186 904 c-26 -15 -27 -17 -12 -32 14 -15 19 -14 58 5 l42 22 -28
10 c-15 6 -28 11 -29 11 -1 -1 -15 -8 -31 -16z"/>
<path d="M590 891 c0 -16 47 -51 68 -51 23 0 30 24 11 36 -18 11 -79 22 -79
15z"/>
<path d="M1052 829 c-63 -25 -62 -37 2 -19 25 7 53 10 62 6 9 -4 33 -3 52 0
33 6 34 8 17 20 -26 19 -71 17 -133 -7z"/>
<path d="M667 813 c-9 -11 -17 -23 -17 -26 0 -13 41 -7 66 9 21 14 31 15 63 5
46 -13 71 -14 71 -2 0 9 -26 14 -120 27 -37 5 -48 2 -63 -13z"/>
<path d="M850 759 c-155 -21 -266 -45 -420 -90 -90 -27 -167 -49 -171 -49 -4
0 -31 -11 -62 -24 l-55 -25 37 -123 c21 -68 40 -129 44 -135 5 -8 34 0 95 24
244 100 432 135 727 137 116 0 228 -2 250 -6 139 -24 300 -68 406 -112 13 -6
21 14 47 116 16 68 33 130 36 138 4 11 -1 15 -16 16 -13 1 -55 13 -94 27 -210
77 -634 131 -824 106z m337 -47 c9 -6 8 -20 -5 -57 l-17 -50 -5 50 c-7 65 -2
76 27 57z m-217 -70 c6 -31 14 -65 16 -74 4 -12 0 -18 -10 -18 -9 0 -16 7 -16
15 0 8 -4 15 -10 15 -5 0 -10 -7 -10 -15 0 -8 -7 -15 -16 -15 -14 0 -15 10 -9
73 7 67 18 92 36 81 4 -2 13 -30 19 -62z m87 60 c14 -9 17 -152 3 -152 -6 0
-10 16 -10 35 0 25 -4 35 -15 35 -13 0 -15 -7 -9 -35 5 -28 3 -35 -10 -35 -13
0 -16 13 -16 80 0 76 1 80 23 80 12 0 27 -4 34 -8z m63 -62 c0 -64 2 -70 21
-70 11 0 19 -5 17 -11 -2 -6 -7 -10 -11 -10 -4 1 -18 1 -32 1 -24 0 -25 2 -25
73 0 41 3 77 7 80 17 18 23 1 23 -63z m-230 51 c0 -5 -9 -11 -20 -14 -11 -3
-20 -10 -20 -17 0 -7 9 -14 20 -17 23 -6 27 -23 5 -23 -9 0 -15 -9 -15 -25 0
-19 5 -25 21 -25 29 0 18 -24 -13 -28 -21 -3 -26 2 -32 29 -3 17 -6 53 -6 80
0 48 1 49 30 49 17 0 30 -4 30 -9z m-82 -43 c2 -29 -1 -38 -17 -43 -16 -5 -19
-12 -14 -40 4 -27 2 -35 -9 -35 -10 0 -17 21 -25 73 -5 39 -8 76 -6 80 3 4 19
7 36 5 29 -3 32 -7 35 -40z m480 30 c17 -17 15 -48 -3 -48 -8 0 -15 9 -15 20
0 11 -4 20 -9 20 -11 0 -21 -36 -21 -77 0 -36 15 -44 23 -13 7 28 27 25 27 -5
0 -45 -62 -57 -75 -14 -6 18 3 106 12 122 7 11 48 8 61 -5z m86 -4 c17 -6 20
-59 7 -119 -5 -25 -11 -30 -36 -30 l-30 0 1 68 c1 78 15 98 58 81z m-694 -10
c0 -4 -7 -12 -16 -18 -12 -10 -13 -19 -5 -56 14 -61 14 -80 -3 -80 -9 0 -16
21 -22 63 -6 43 -13 62 -23 62 -24 0 -23 23 1 28 38 7 68 7 68 1z m778 -10
c27 -8 29 -24 2 -24 -13 0 -20 -7 -20 -20 0 -11 7 -20 15 -20 8 0 15 -4 15
-10 0 -5 -8 -10 -19 -10 -14 0 -21 -10 -25 -35 -5 -23 -11 -32 -20 -29 -10 4
-12 15 -6 42 4 20 11 54 14 75 7 39 8 40 44 31z m-865 -72 c31 -78 32 -82 12
-82 -8 0 -15 5 -15 10 0 6 -4 10 -10 10 -5 0 -10 -7 -10 -15 0 -8 -6 -15 -14
-15 -11 0 -15 18 -18 73 -3 63 3 86 22 87 3 0 17 -30 33 -68z m945 52 c12 -4
22 -12 22 -20 0 -8 -6 -11 -16 -7 -9 3 -20 0 -25 -8 -13 -20 -11 -29 6 -29 8
0 15 -6 15 -14 0 -9 -7 -12 -20 -9 -17 5 -20 0 -20 -26 0 -21 -5 -31 -15 -31
-18 0 -19 15 -4 78 19 81 15 77 57 66z m-1038 -19 c0 -8 -7 -15 -16 -15 -9 0
-14 -7 -12 -17 2 -11 11 -17 21 -15 10 2 17 -4 17 -13 0 -8 -7 -15 -16 -15
-11 0 -14 -5 -10 -16 3 -9 6 -20 6 -25 0 -6 9 -7 20 -4 28 9 26 -14 -2 -24
-30 -12 -33 -7 -52 67 -20 78 -20 71 7 82 32 13 37 12 37 -5z m1134 -27 c-3
-5 -12 -7 -20 -4 -22 9 -29 -23 -9 -38 13 -9 15 -15 7 -20 -7 -4 -16 -5 -21
-2 -5 3 -12 -1 -15 -10 -10 -25 -7 -34 9 -34 8 0 15 -7 15 -16 0 -11 -6 -14
-22 -9 -37 12 -39 19 -22 86 21 82 19 80 54 67 17 -5 27 -14 24 -20z m-1219 2
c3 -5 12 -31 19 -57 7 -27 17 -56 21 -65 5 -13 3 -18 -9 -18 -10 0 -19 11 -22
30 -4 17 -12 30 -20 30 -10 0 -11 -7 -2 -31 7 -22 7 -34 0 -41 -8 -8 -13 -7
-16 3 -44 142 -43 133 -13 147 29 14 35 14 42 2z m1276 -10 c23 -13 26 -35 2
-26 -9 4 -20 1 -25 -6 -12 -19 -10 -28 7 -28 8 0 15 -7 15 -16 0 -10 -6 -13
-19 -9 -13 4 -20 0 -24 -16 -4 -15 0 -23 14 -26 20 -5 23 -26 4 -23 -34 4 -56
14 -52 24 3 7 13 40 22 74 18 64 23 69 56 52z m-1459 -57 c-3 -28 5 -54 26
-95 31 -58 31 -68 1 -68 -18 0 -21 7 -50 122 -12 51 -8 78 13 78 10 0 12 -11
10 -37z m101 17 c7 -26 -9 -35 -22 -13 -16 29 -23 8 -12 -33 14 -48 28 -71 38
-61 4 4 2 17 -5 28 -12 19 -9 39 7 39 7 0 35 -69 29 -74 -18 -16 -52 -26 -59
-19 -7 7 -49 110 -49 120 0 1 7 9 16 17 22 22 51 20 57 -4z m407 -30 c0 -9
-37 -20 -44 -13 -3 3 -1 14 5 25 8 15 13 17 25 7 8 -6 14 -15 14 -19z"/>
<path d="M1024 676 c-6 -17 2 -36 17 -36 12 0 12 37 -1 45 -6 3 -13 -1 -16 -9z"/>
<path d="M760 662 c0 -19 12 -42 22 -42 14 0 5 43 -9 48 -7 2 -13 -1 -13 -6z"/>
<path d="M1347 653 c-2 -4 -8 -32 -12 -62 -6 -43 -5 -53 6 -49 16 5 32 99 20
111 -5 5 -11 5 -14 0z"/>
<path d="M380 551 c0 -22 16 -36 24 -22 8 12 -3 41 -15 41 -5 0 -9 -9 -9 -19z"/>
<path d="M1759 438 l-24 -93 -57 -30 c-32 -16 -56 -34 -55 -40 2 -5 20 -13 40
-17 20 -4 69 -24 108 -43 40 -19 73 -34 75 -33 1 2 -3 37 -9 79 l-11 76 48 62
c54 70 54 72 -19 110 -66 35 -69 32 -96 -71z m85 29 c18 -13 17 -17 -18 -66
-28 -41 -36 -63 -36 -97 0 -49 1 -48 -34 -34 -31 11 -33 30 -7 54 11 10 25 41
32 69 20 87 30 98 63 74z"/>
<path d="M70 448 c-36 -18 -66 -32 -67 -33 -2 -1 20 -26 47 -55 28 -30 48 -61
45 -68 -3 -8 -8 -45 -11 -83 -7 -67 -1 -82 22 -59 6 6 55 30 109 55 75 34 94
46 79 51 -78 27 -102 43 -107 70 -9 50 -41 154 -47 153 -3 0 -34 -14 -70 -31z
m73 -93 c9 -32 24 -66 32 -75 20 -22 19 -37 -4 -50 -35 -18 -41 -12 -41 42 0
39 -6 59 -25 84 -28 37 -31 50 -12 57 23 10 32 0 50 -58z"/>
<path d="M944 383 c-31 -3 -43 -9 -47 -24 -5 -20 7 -26 18 -9 3 6 12 10 19 10
16 0 19 -108 4 -127 -8 -10 -3 -13 19 -13 l28 0 -5 66 c-6 68 1 84 26 63 19
-15 25 -9 17 19 -3 13 -12 21 -22 20 -9 -1 -35 -3 -57 -5z"/>
<path d="M1280 348 c44 -46 53 -89 23 -107 -14 -8 -7 -10 31 -11 38 0 46 3 38
13 -9 11 -16 46 -13 74 1 6 15 25 32 42 l31 31 -32 0 c-18 0 -29 -4 -25 -10 3
-5 1 -19 -5 -30 -9 -17 -14 -19 -26 -9 -8 7 -12 20 -9 30 6 17 1 19 -40 19
l-46 0 41 -42z"/>
<path d="M1148 368 c16 -16 16 -125 0 -131 -23 -8 -1 -18 24 -12 20 5 24 11
21 33 -4 26 -4 26 11 8 9 -11 16 -23 16 -28 0 -4 10 -8 22 -8 l22 0 -22 20
c-24 23 -27 35 -12 45 14 9 13 58 -2 73 -21 21 -28 13 -22 -27 4 -24 2 -41 -5
-45 -11 -7 -16 23 -13 67 1 12 -6 17 -25 17 -21 0 -24 -3 -15 -12z"/>
<path d="M574 287 l1 -83 28 4 c20 3 25 8 18 15 -6 6 -11 24 -11 40 0 22 4 28
15 23 10 -4 15 1 15 15 0 15 -5 19 -15 15 -10 -3 -15 1 -15 13 0 26 26 34 45
14 19 -18 28 -13 19 11 -4 12 -19 16 -54 16 l-47 0 1 -83z"/>
<path d="M701 358 c5 -23 -13 -118 -22 -124 -18 -11 -8 -24 19 -24 26 0 28 3
24 30 -3 22 0 30 11 30 18 0 29 -24 21 -45 -4 -10 0 -15 11 -15 12 0 15 5 10
18 -4 9 -9 45 -12 80 -3 34 -10 62 -15 62 -5 0 -7 -18 -4 -40 3 -22 1 -40 -5
-40 -9 0 -13 27 -10 63 2 10 -4 17 -14 17 -9 0 -15 -6 -14 -12z"/>
<path d="M800 351 c-17 -33 -12 -106 8 -124 26 -24 47 -21 67 9 18 29 15 43
-5 19 -29 -35 -56 -2 -48 61 3 30 38 49 38 20 0 -15 18 -32 26 -23 3 2 -1 16
-7 31 -15 32 -63 37 -79 7z"/>
<path d="M1052 353 c-5 -10 -7 -39 -4 -64 8 -94 92 -87 92 7 0 47 -8 74 -21
74 -5 0 -9 -30 -9 -66 0 -48 -3 -65 -12 -62 -8 3 -14 28 -16 66 -3 62 -14 78
-30 45z"/>
<path d="M1522 259 c-115 -93 -238 -150 -386 -178 -53 -10 -92 -23 -94 -31 -4
-10 7 -12 52 -6 138 16 348 117 467 225 69 62 42 55 -39 -10z"/>
<path d="M390 230 c0 -15 109 -84 185 -118 85 -37 200 -69 273 -75 46 -4 52
-2 52 14 0 16 -8 19 -49 19 -117 0 -296 58 -400 129 -34 23 -61 37 -61 31z"/>
<path d="M927 82 c-25 -27 -21 -31 21 -26 l37 5 -35 -16 c-33 -16 -34 -17 -16
-31 23 -17 27 -17 59 -5 30 12 42 43 27 71 -14 26 -70 27 -93 2z"/>
</g>
</svg>
