<?xml version="1.0" standalone="no"?>
<!DOCTYPE svg PUBLIC "-//W3C//DTD SVG 20010904//EN"
 "http://www.w3.org/TR/2001/REC-SVG-20010904/DTD/svg10.dtd">
<svg version="1.0" xmlns="http://www.w3.org/2000/svg"
 width="269.000000pt" height="277.000000pt" viewBox="0 0 269.000000 277.000000"
 preserveAspectRatio="xMidYMid meet">
<metadata>
Created by potrace 1.10, written by Peter Selinger 2001-2011
</metadata>
<g transform="translate(0.000000,277.000000) scale(0.100000,-0.100000)"
fill="#000000" stroke="none">
<path d="M1220 2758 c-452 -28 -884 -331 -1085 -762 -141 -301 -163 -665 -59
-981 155 -471 562 -821 1049 -901 152 -24 405 -15 543 21 364 94 655 316 841
640 127 222 180 451 168 725 -15 334 -139 619 -375 862 -111 115 -231 202
-367 269 -227 110 -426 146 -715 127z m375 -63 c462 -97 833 -427 974 -867 81
-254 83 -533 5 -779 -122 -385 -421 -696 -797 -828 -294 -103 -582 -102 -877
5 -498 179 -840 672 -840 1210 0 339 131 654 375 900 193 194 438 323 695 364
41 6 82 13 90 15 39 10 303 -5 375 -20z"/>
<path d="M1270 2550 c0 -34 15 -40 23 -10 3 12 14 20 26 20 20 0 21 -5 21 -80
0 -64 -3 -80 -15 -80 -8 0 -15 -4 -15 -10 0 -5 24 -10 53 -10 45 1 50 2 35 14
-14 10 -18 28 -18 84 0 39 4 73 9 76 14 9 41 -4 41 -20 0 -8 6 -14 13 -14 9 0
12 10 9 30 l-4 30 -89 0 -89 0 0 -30z"/>
<path d="M1142 2562 c-6 -5 -21 -48 -31 -96 -21 -96 -29 -112 -38 -78 -6 25
-23 20 -23 -8 0 -11 -12 -22 -32 -29 -36 -13 -44 -8 -53 32 -6 22 -4 27 12 27
10 0 24 -5 30 -11 18 -18 21 4 5 41 -13 32 -15 33 -22 14 -13 -34 -39 -38 -50
-8 -13 33 -14 30 20 44 27 11 32 11 44 -5 17 -23 26 -7 15 24 -7 17 -14 21
-27 16 -9 -4 -43 -16 -74 -27 -55 -19 -76 -38 -43 -38 8 0 15 -2 15 -5 0 -2
11 -34 25 -70 23 -62 23 -65 6 -75 -13 -7 -30 -5 -59 8 -36 15 -40 20 -35 45
8 40 -19 68 -56 57 -34 -9 -111 -52 -111 -61 0 -4 8 -9 18 -11 26 -7 93 -123
79 -137 -22 -22 -1 -18 43 7 38 23 42 27 23 30 -24 4 -58 48 -44 57 6 3 26 -4
46 -15 44 -25 51 -25 101 -1 21 10 77 31 124 47 98 32 99 32 81 43 -23 15 -8
45 27 52 26 5 35 3 43 -13 8 -16 8 -23 -2 -29 -23 -14 -4 -20 40 -13 41 7 52
17 27 27 -7 3 -34 42 -60 86 -27 45 -49 81 -49 81 -1 0 -8 -4 -15 -8z m17
-110 c-28 -5 -31 1 -23 33 l7 27 18 -29 c19 -28 19 -28 -2 -31z m-374 -96 c0
-38 -18 -43 -39 -11 -20 30 -13 47 17 43 17 -2 22 -10 22 -32z"/>
<path d="M1580 2541 c0 -5 5 -11 10 -13 7 -2 7 -13 1 -33 -6 -17 -15 -49 -21
-72 -6 -26 -17 -43 -25 -43 -30 0 -14 -17 26 -29 40 -12 65 -7 41 8 -9 5 -11
17 -7 34 6 22 11 26 31 21 39 -10 70 3 84 36 11 26 10 33 -5 50 -10 11 -41 27
-68 35 -59 17 -67 18 -67 6z m90 -46 c16 -19 -1 -65 -24 -65 -21 0 -27 14 -20
49 7 34 24 40 44 16z"/>
<path d="M1770 2491 c0 -5 4 -13 10 -16 14 -9 -56 -143 -77 -148 -12 -2 10
-17 62 -42 44 -21 93 -47 109 -58 28 -19 28 -19 22 -1 -4 13 1 23 14 31 16 11
23 9 45 -10 27 -23 27 -57 -1 -57 -23 0 -16 -14 22 -39 20 -14 47 -40 61 -58
14 -18 29 -30 35 -27 5 4 5 11 -1 18 -8 9 -4 19 13 35 28 26 41 15 26 -24 -5
-14 -10 -34 -10 -44 0 -14 93 -168 115 -189 7 -7 55 19 55 31 0 5 -11 6 -24 3
-18 -4 -28 0 -40 19 -9 13 -16 27 -16 29 0 3 28 23 62 45 46 29 66 37 75 29
21 -17 16 8 -9 47 -24 37 -43 47 -34 18 4 -14 -11 -28 -59 -59 -81 -53 -98
-41 -79 55 5 25 11 30 25 26 28 -9 59 12 59 41 0 26 -78 127 -92 118 -4 -3 -5
-10 -2 -17 2 -7 -21 -37 -51 -67 -52 -51 -57 -54 -69 -37 -11 15 -10 31 11
104 30 107 27 121 -24 94 -21 -11 -58 -34 -83 -50 -49 -33 -82 -42 -60 -16 6
8 9 19 5 25 -5 8 -11 6 -19 -5 -10 -14 -15 -15 -49 0 l-37 15 15 30 c9 17 19
30 23 30 15 0 30 -16 34 -35 3 -17 6 -16 21 12 22 41 21 46 -2 38 -10 -3 -25
-3 -34 1 -13 5 -14 10 -4 32 6 15 12 28 13 30 1 2 16 -4 34 -13 20 -10 30 -22
26 -30 -8 -23 12 -28 23 -6 18 32 27 25 -131 99 -5 2 -8 -1 -8 -7z m224 -208
c-4 -16 -7 -29 -8 -30 -1 -1 -10 5 -20 13 -20 14 -20 14 0 29 28 21 35 18 28
-12z m195 -102 c8 -14 6 -22 -8 -35 -21 -19 -33 -20 -49 -4 -9 9 -6 17 11 34
28 28 34 28 46 5z"/>
<path d="M557 2281 c-36 -34 -42 -45 -42 -81 0 -35 6 -47 33 -71 49 -44 97
-40 146 10 l39 40 -19 28 c-10 15 -17 34 -16 41 5 22 -13 13 -49 -25 -23 -24
-28 -34 -15 -29 12 4 26 0 38 -10 17 -16 17 -18 2 -36 -10 -10 -26 -18 -37
-18 -26 0 -87 63 -87 89 0 32 37 64 66 57 27 -7 32 8 10 30 -20 19 -21 19 -69
-25z"/>
<path d="M1167 2244 c-294 -65 -528 -283 -619 -574 -20 -66 -23 -95 -23 -245
0 -165 1 -173 31 -257 128 -358 466 -587 834 -565 178 11 322 65 467 174 135
102 248 273 294 448 30 111 30 307 1 417 -76 285 -306 517 -587 594 -86 23
-310 28 -398 8z m403 -47 c149 -49 247 -107 342 -204 101 -102 155 -193 199
-333 21 -65 24 -95 24 -230 0 -137 -3 -164 -24 -230 -103 -314 -350 -520 -677
-560 -335 -42 -666 146 -815 463 -90 194 -92 454 -4 653 101 229 322 406 575
460 100 21 285 12 380 -19z"/>
<path d="M1434 1881 c-85 -21 -224 -122 -224 -164 0 -13 -9 -16 -42 -14 -73 5
-111 -11 -175 -72 -74 -70 -88 -107 -80 -209 16 -206 223 -402 427 -402 61 0
97 13 135 50 17 15 42 39 57 53 28 26 58 109 58 160 0 22 12 39 50 74 97 87
153 255 120 359 -14 44 -46 84 -67 84 -8 0 -12 4 -9 9 9 14 -44 60 -83 71 -41
11 -121 12 -167 1z m171 -39 c28 -9 49 -21 48 -26 -1 -5 -24 -18 -51 -28 -63
-23 -136 -87 -158 -137 l-17 -39 -48 34 c-26 19 -71 43 -99 52 l-53 18 44 38
c108 93 227 124 334 88z m118 -123 c20 -62 21 -89 3 -154 -17 -66 -46 -121
-91 -173 l-38 -43 -23 58 c-13 32 -42 85 -65 117 -49 72 -47 89 19 155 34 34
66 54 108 69 32 11 62 21 65 21 3 1 13 -22 22 -50z m-416 -87 c170 -87 280
-293 233 -438 -22 -68 -31 -70 -55 -11 -44 108 -113 168 -237 205 -89 26 -140
68 -178 145 -43 89 -43 108 0 124 60 22 165 11 237 -25z m-299 -87 c27 -89
125 -182 217 -206 127 -32 208 -111 231 -225 5 -27 2 -32 -23 -42 -160 -61
-367 45 -455 235 -39 83 -45 182 -14 251 21 47 27 46 44 -13z"/>
<path d="M945 584 c-26 -28 -32 -63 -15 -93 11 -22 64 -45 85 -37 22 8 18 25
-4 19 -18 -5 -61 27 -61 45 0 20 42 72 59 72 18 0 39 -17 39 -33 0 -18 12 -19
18 -2 5 12 0 24 -15 37 -34 26 -77 23 -106 -8z"/>
<path d="M1675 587 c-63 -26 -62 -25 -43 -40 21 -16 49 -93 42 -112 -5 -13 2
-12 47 5 81 32 82 33 64 55 -13 18 -14 18 -15 2 0 -14 -47 -44 -55 -35 -1 2
-7 13 -13 25 -9 16 -9 22 2 26 7 3 19 0 25 -6 16 -16 24 -1 11 23 -8 15 -8 25
-1 34 8 9 7 17 -2 28 -11 14 -17 13 -62 -5z m49 -29 c-12 -41 -39 -49 -47 -16
-7 24 7 38 36 38 14 0 17 -5 11 -22z"/>
<path d="M1081 534 c-28 -35 -27 -87 1 -114 41 -38 97 -21 119 37 14 37 11 52
-16 78 -33 34 -77 33 -104 -1z m87 -35 c4 -47 -28 -90 -55 -73 -12 8 -18 23
-17 48 1 43 20 68 48 64 16 -2 22 -11 24 -39z"/>
<path d="M1545 543 c-62 -16 -180 -21 -265 -10 -55 8 -62 7 -49 -5 14 -11 16
-23 10 -66 -4 -30 -13 -57 -20 -62 -17 -10 -5 -15 39 -19 28 -2 33 0 23 10
-21 21 -16 59 7 59 12 0 20 -7 20 -17 0 -24 13 -7 17 22 3 23 1 24 -28 18 -28
-5 -31 -4 -26 11 4 10 7 22 7 27 0 15 27 10 45 -8 13 -13 18 -14 25 -3 4 7 12
10 18 7 13 -9 14 -107 1 -124 -9 -10 -4 -13 25 -13 20 0 36 5 36 10 0 6 -4 10
-10 10 -5 0 -10 11 -10 25 0 18 5 25 19 25 11 0 22 -6 24 -12 3 -7 6 3 6 22 1
26 -2 31 -11 22 -20 -20 -38 -14 -38 13 0 19 5 25 21 25 12 0 28 -8 35 -17 12
-17 13 -16 14 5 0 31 18 28 26 -5 3 -16 10 -42 14 -60 5 -20 4 -35 -3 -42 -14
-14 -6 -13 63 3 44 10 56 17 58 34 2 12 -1 22 -7 22 -6 0 -11 -6 -11 -14 0
-15 -45 -30 -60 -21 -13 8 -13 42 0 50 6 4 17 1 25 -5 17 -14 19 0 6 34 -7 18
-8 18 -14 3 -9 -23 -34 -21 -40 2 -3 11 -2 22 1 25 10 10 48 6 60 -6 9 -9 12
-9 12 3 0 31 -14 36 -65 22z"/>
</g>
</svg>
